<svg version="1.1" id="Capa_1" xmlns="http://www.w3.org/2000/svg" xmlns:xlink="http://www.w3.org/1999/xlink" x="0px" y="0px"
	 viewBox="0 0 3820.2 451.7" style="enable-background:new 0 0 3820.2 451.7;" xml:space="preserve">
<style type="text/css">
	.st0{fill:#21A36B;}
</style>
<path class="st0" d="M3655.9,222c6.3-26.9,26.1-42.5,55.1-42.5c22.7,0,45.4,12.2,52.1,42.5H3655.9z M3656.7,264h158.5
	c1.3-7.1,2.1-14.3,2.1-22.3c0-61.8-44.1-111-106.4-111c-66,0-111,48.4-111,111s44.6,111,115.2,111c40.4,0,71.9-16.4,91.7-45
	l-43.7-25.2c-9.2,12.2-26.1,21-47.1,21C3687.4,303.5,3664.3,291.8,3656.7,264 M3449,301c-33.6,0-58.4-24-58.4-59.3
	s24.8-59.3,58.4-59.3c33.2,0,58,24,58,59.3S3482.2,301,3449,301 M3507,52.5v108.9c-15.1-19.3-37.4-30.7-68.1-30.7
	c-56.3,0-102.6,48.4-102.6,111s46.2,111,102.6,111c30.7,0,53-11.4,68.1-30.7v24.8h54.2V52.5H3507z M3260.2,172.8v-36.2H3206v210.2
	h54.2V246.3c0-44.1,35.7-56.8,63.9-53.4v-60.5C3297.7,132.4,3271.2,144.2,3260.2,172.8 M3006.7,222c6.3-26.9,26.1-42.5,55.1-42.5
	c22.7,0,45.4,12.2,52.1,42.5H3006.7z M3007.6,264h158.5c1.3-7.1,2.1-14.3,2.1-22.3c0-61.8-44.1-111-106.4-111
	c-66,0-111,48.4-111,111s44.6,111,115.2,111c40.4,0,71.9-16.4,91.7-45l-43.7-25.2c-9.2,12.2-26.1,21-47.1,21
	C3038.3,303.5,3015.1,291.8,3007.6,264 M2884.4,136.6l-51.3,147.2l-50.9-147.2h-59.7l79.9,210.2h61.8l79.9-210.2H2884.4z
	 M2526.6,309.4c-15.6,0-26.1-11.8-26.1-26.9s10.5-26.9,26.1-26.9c15.6,0,26.1,11.8,26.1,26.9
	C2552.7,296.8,2542.1,309.4,2526.6,309.4 M2526.6,351.9c40.8,0,70.6-31.1,70.6-69.4c0-38.3-29.9-69.4-70.6-69.4
	s-70.6,31.1-70.6,69.4S2485.8,351.9,2526.6,351.9 M2384.1,142.9c-15.1,0-26.1-11.8-26.1-26.9c0-14.7,10.9-26.5,26.1-26.5
	c15.6,0,26.5,11.8,26.5,26.5C2410.5,130.7,2399.6,142.9,2384.1,142.9 M2343.3,302.3l25.2,14.7l192.1-213.6L2535,89.1L2343.3,302.3z
	 M2384.5,185.4c40.8,0,70.6-30.7,70.6-69.4c0-39.1-30.3-69.4-70.6-69.4c-40.8,0-71.1,31.1-71.1,69.4
	C2313.4,154.7,2343.7,185.4,2384.5,185.4 M2170.5,296c-39.5,0-59.7-34.1-59.7-96.3s20.2-96.7,59.7-96.7s60.1,34.5,60.1,96.7
	S2210,296,2170.5,296 M2170.5,352.7c75.3,0,117.7-62.2,117.7-153s-42.5-153-117.7-153c-74.8,0-117.7,62.2-117.7,153
	C2052.7,290.5,2095.6,352.7,2170.5,352.7 M1905.6,296c-39.5,0-59.7-34.1-59.7-96.3s20.2-96.7,59.7-96.7s60.1,34.5,60.1,96.7
	S1945.1,296,1905.6,296 M1905.6,352.7c75.3,0,117.7-62.2,117.7-153s-42.5-153-117.7-153c-74.8,0-117.7,62.2-117.7,153
	S1830.8,352.7,1905.6,352.7 M1692.4,52.5l-77.3,27.4l14.3,49.6l55.5-15.6v232.9h58V52.5H1692.4z M1378.2,299.8
	c-33.2,0-58-24-58-59.3s24.8-59.3,58-59.3c33.6,0,58.4,24,58.4,59.3S1411.8,299.8,1378.2,299.8 M1436.6,135.4v24.8
	c-15.1-18.9-37.8-30.7-68.5-30.7c-55.9,0-102.2,48.4-102.2,111s46.2,111,102.2,111c30.7,0,53.4-11.8,68.5-30.7v24.8h54.2V135.4
	H1436.6z M1173,345.6h54.2V135.4H1173V345.6z M1173.4,112.2l17.7-61h62.2l-27.7,61H1173.4z M1012,294.7c-34.1,0-58.9-24-58.9-57.6
	c0-33.2,24.8-57.2,58.9-57.2s58.9,24,58.9,57.2C1070.9,270.8,1046,294.7,1012,294.7 M1070.9,135.4v26.1c-14.7-19.8-37.4-32-67.3-32
	c-59.7,0-104.7,48.8-104.7,107.6c0,59.3,45,107.6,104.7,107.6c29.9,0,52.6-12.2,67.3-32v22.7c0,33.2-21,51.7-55.1,51.7
	c-32.4,0-46.2-13-55.1-29.4l-46.2,26.5c18.5,34.1,54.7,51.3,99.6,51.3c55.5,0,109.7-31.1,109.7-100.1v-200H1070.9z M822.4,171.5
	v-36.1h-54.2v210.2h54.2V245.1c0-44.1,35.7-56.8,63.9-53.4v-60.5C859.8,131.2,833.3,142.9,822.4,171.5 M568.9,220.7
	c6.3-26.9,26.1-42.5,55.1-42.5c22.7,0,45.4,12.2,52.1,42.5H568.9z M569.7,262.8h158.5c1.3-7.1,2.1-14.3,2.1-22.3
	c0-61.8-44.1-111-106.4-111c-66,0-111,48.4-111,111s44.6,111,115.2,111c40.4,0,71.9-16.4,91.7-45l-43.7-25.2
	c-9.2,12.2-26.1,21-47.1,21C600.4,302.3,577.3,290.5,569.7,262.8 M82.1,220.7c6.3-26.9,26.1-42.5,55.1-42.5
	c22.7,0,45.4,12.2,52.1,42.5H82.1z M82.9,262.8h158.5c1.3-7.1,2.1-14.3,2.1-22.3c0-61.8-44.1-111-106.4-111c-66,0-111,48.4-111,111
	s44.6,111,115.2,111c40.4,0,71.9-16.4,91.7-45l-43.7-25.2c-9.2,12.2-26.1,21-47.1,21C113.6,302.3,90.5,290.5,82.9,262.8
	 M398.2,129.5c-28.2,0-50,10.5-62.6,29.4v-23.5h-54.2v210.2h54.2V232.1c0-36.6,19.8-52.1,46.2-52.1c24.4,0,41.6,14.7,41.6,43.3
	v122.3h54.2V216.5C477.6,160.6,442.7,129.5,398.2,129.5"/>
</svg>
