<svg width="33" height="33" fill="none" xmlns="http://www.w3.org/2000/svg"><circle cx="16.557" cy="16.302" r="15.5" transform="rotate(-90 16.557 16.302)" stroke="#4A4A4A"/><path fill-rule="evenodd" clip-rule="evenodd" d="M13.557 8.302h6a5 5 0 015 5v6a5 5 0 01-5 5h-6a5 5 0 01-5-5v-6a5 5 0 015-5zm6 14.5c1.93 0 3.5-1.57 3.5-3.5v-6c0-1.93-1.57-3.5-3.5-3.5h-6c-1.93 0-3.5 1.57-3.5 3.5v6c0 1.93 1.57 3.5 3.5 3.5h6zm-7-6.5a4 4 0 118 0 4 4 0 01-8 0zm1.5 0c0 1.378 1.122 2.5 2.5 2.5s2.5-1.122 2.5-2.5c0-1.379-1.122-2.5-2.5-2.5a2.503 2.503 0 00-2.5 2.5zm7.333-4.3a.533.533 0 11-1.066 0 .533.533 0 011.066 0z" fill="#4A4A4A"/></svg>