<svg width="33" height="33" fill="none" xmlns="http://www.w3.org/2000/svg"><circle cx="16.557" cy="16.302" r="15.5" transform="rotate(-90 16.557 16.302)" stroke="#4A4A4A"/><path fill-rule="evenodd" clip-rule="evenodd" d="M12.057 9.252a1.75 1.75 0 11-3.5 0 1.75 1.75 0 013.5 0zm-3.5 3.25h3.578v11H8.557v-11zm13.324.13l-.037-.013-.077-.024a2.32 2.32 0 00-.145-.028 3.207 3.207 0 00-.642-.065c-2.086 0-3.409 1.517-3.845 2.103v-2.103h-3.578v11h3.578v-6s2.704-3.766 3.845-1v7h3.577V16.08a3.568 3.568 0 00-2.676-3.448z" fill="#4A4A4A"/></svg>